HIERARCHY
ROOT Hips
{
    OFFSET   0.000000   0.000000   0.000000
    CHANNELS 6 Xposition Yposition Zposition Zrotation Xrotation Yrotation
    JOINT Chest
    {
        OFFSET   0.000000   8.007230   0.000000
        CHANNELS 3 Zrotation Xrotation Yrotation
        JOINT Chest2
        {
            OFFSET   0.000000  22.077100   0.000000
            CHANNELS 3 Zrotation Xrotation Yrotation
            JOINT Neck
            {
                OFFSET   0.000000  23.254800  -0.000021
                CHANNELS 3 Zrotation Xrotation Yrotation
                JOINT Head
                {
                    OFFSET   0.000000  14.370000   1.956610
                    CHANNELS 3 Zrotation Xrotation Yrotation
                    End Site
                    {
                        OFFSET   0.000000  19.566000   0.000000
                    }
                }
            }
            JOINT LeftCollar
            {
                OFFSET   3.911900  19.017000  -0.467063
                CHANNELS 3 Zrotation Xrotation Yrotation
                JOINT LeftShoulder
                {
                    OFFSET  10.383700   0.000000   0.000000
                    CHANNELS 3 Zrotation Xrotation Yrotation
                    JOINT LeftElbow
                    {
                        OFFSET  26.662100   0.001529   0.000325
                        CHANNELS 3 Zrotation Xrotation Yrotation
                        JOINT LeftWrist
                        {
                            OFFSET  28.869000  -0.000011  -0.000096
                            CHANNELS 3 Zrotation Xrotation Yrotation
                            JOINT LeftFinger0
                            {
                                OFFSET   2.044650  -2.323460   3.252850
                                CHANNELS 3 Zrotation Xrotation Yrotation
                                JOINT LeftFinger01
                                {
                                    OFFSET   3.088130   0.000000   0.000000
                                    CHANNELS 3 Zrotation Xrotation Yrotation
                                    JOINT LeftFinger02
                                    {
                                        OFFSET   2.639460   0.000000   0.000000
                                        CHANNELS 3 Zrotation Xrotation Yrotation
                                        End Site
                                        {
                                            OFFSET   2.582190   0.000000   0.000000
                                        }
                                    }
                                }
                            }
                            JOINT LeftFinger1
                            {
                                OFFSET   8.364480   0.000000   3.252850
                                CHANNELS 3 Zrotation Xrotation Yrotation
                                JOINT LeftFinger11
                                {
                                    OFFSET   4.646930   0.000000   0.000000
                                    CHANNELS 3 Zrotation Xrotation Yrotation
                                    JOINT LeftFinger12
                                    {
                                        OFFSET   2.323460   0.000000   0.000000
                                        CHANNELS 3 Zrotation Xrotation Yrotation
                                        End Site
                                        {
                                            OFFSET   2.273050   0.000000   0.000000
                                        }
                                    }
                                }
                            }
                            JOINT LeftFinger2
                            {
                                OFFSET   8.364480   0.000016   1.078090
                                CHANNELS 3 Zrotation Xrotation Yrotation
                                JOINT LeftFinger21
                                {
                                    OFFSET   5.111620   0.000000   0.000000
                                    CHANNELS 3 Zrotation Xrotation Yrotation
                                    JOINT LeftFinger22
                                    {
                                        OFFSET   2.788160   0.000017   0.000000
                                        CHANNELS 3 Zrotation Xrotation Yrotation
                                        End Site
                                        {
                                            OFFSET   2.727660   0.000000   0.000000
                                        }
                                    }
                                }
                            }
                            JOINT LeftFinger3
                            {
                                OFFSET   7.899780   0.000015  -1.078090
                                CHANNELS 3 Zrotation Xrotation Yrotation
                                JOINT LeftFinger31
                                {
                                    OFFSET   4.646920   0.000000   0.000000
                                    CHANNELS 3 Zrotation Xrotation Yrotation
                                    JOINT LeftFinger32
                                    {
                                        OFFSET   2.323470   0.000000   0.000000
                                        CHANNELS 3 Zrotation Xrotation Yrotation
                                        End Site
                                        {
                                            OFFSET   2.273050   0.000000   0.000000
                                        }
                                    }
                                }
                            }
                            JOINT LeftFinger4
                            {
                                OFFSET   7.435090   0.000000  -3.252850
                                CHANNELS 3 Zrotation Xrotation Yrotation
                                JOINT LeftFinger41
                                {
                                    OFFSET   3.717550   0.000000   0.000000
                                    CHANNELS 3 Zrotation Xrotation Yrotation
                                    JOINT LeftFinger42
                                    {
                                        OFFSET   1.858760   0.000000   0.000000
                                        CHANNELS 3 Zrotation Xrotation Yrotation
                                        End Site
                                        {
                                            OFFSET   1.818440   0.000000   0.000000
                                        }
                                    }
                                }
                            }
                        }
                    }
                }
            }
            JOINT RightCollar
            {
                OFFSET  -3.911900  19.017000  -0.467062
                CHANNELS 3 Zrotation Xrotation Yrotation
                JOINT RightShoulder
                {
                    OFFSET -10.383700   0.000015   0.000000
                    CHANNELS 3 Zrotation Xrotation Yrotation
                    JOINT RightElbow
                    {
                        OFFSET -26.662100   0.001341   0.000385
                        CHANNELS 3 Zrotation Xrotation Yrotation
                        JOINT RightWrist
                        {
                            OFFSET -28.869000   0.000025  -0.000080
                            CHANNELS 3 Zrotation Xrotation Yrotation
                            JOINT RightFinger0
                            {
                                OFFSET  -2.044650  -2.323490   3.252850
                                CHANNELS 3 Zrotation Xrotation Yrotation
                                JOINT RightFinger01
                                {
                                    OFFSET  -3.088130   0.000000   0.000000
                                    CHANNELS 3 Zrotation Xrotation Yrotation
                                    JOINT RightFinger02
                                    {
                                        OFFSET  -2.639460   0.000000   0.000000
                                        CHANNELS 3 Zrotation Xrotation Yrotation
                                        End Site
                                        {
                                            OFFSET  -2.582190   0.000000   0.000000
                                        }
                                    }
                                }
                            }
                            JOINT RightFinger1
                            {
                                OFFSET  -8.364480   0.000000   3.252850
                                CHANNELS 3 Zrotation Xrotation Yrotation
                                JOINT RightFinger11
                                {
                                    OFFSET  -4.646930   0.000000   0.000000
                                    CHANNELS 3 Zrotation Xrotation Yrotation
                                    JOINT RightFinger12
                                    {
                                        OFFSET  -2.323470   0.000000   0.000000
                                        CHANNELS 3 Zrotation Xrotation Yrotation
                                        End Site
                                        {
                                            OFFSET  -2.273050   0.000000   0.000000
                                        }
                                    }
                                }
                            }
                            JOINT RightFinger2
                            {
                                OFFSET  -8.364480   0.000000   1.078090
                                CHANNELS 3 Zrotation Xrotation Yrotation
                                JOINT RightFinger21
                                {
                                    OFFSET  -5.111610   0.000000   0.000000
                                    CHANNELS 3 Zrotation Xrotation Yrotation
                                    JOINT RightFinger22
                                    {
                                        OFFSET  -2.788160   0.000000   0.000000
                                        CHANNELS 3 Zrotation Xrotation Yrotation
                                        End Site
                                        {
                                            OFFSET  -2.727660   0.000000   0.000000
                                        }
                                    }
                                }
                            }
                            JOINT RightFinger3
                            {
                                OFFSET  -7.899780   0.000000  -1.078090
                                CHANNELS 3 Zrotation Xrotation Yrotation
                                JOINT RightFinger31
                                {
                                    OFFSET  -4.646920   0.000000   0.000000
                                    CHANNELS 3 Zrotation Xrotation Yrotation
                                    JOINT RightFinger32
                                    {
                                        OFFSET  -2.323470   0.000000   0.000000
                                        CHANNELS 3 Zrotation Xrotation Yrotation
                                        End Site
                                        {
                                            OFFSET  -2.273050   0.000000   0.000000
                                        }
                                    }
                                }
                            }
                            JOINT RightFinger4
                            {
                                OFFSET  -7.435090   0.000000  -3.252850
                                CHANNELS 3 Zrotation Xrotation Yrotation
                                JOINT RightFinger41
                                {
                                    OFFSET  -3.717550   0.000000   0.000000
                                    CHANNELS 3 Zrotation Xrotation Yrotation
                                    JOINT RightFinger42
                                    {
                                        OFFSET  -1.858770   0.000000   0.000000
                                        CHANNELS 3 Zrotation Xrotation Yrotation
                                        End Site
                                        {
                                            OFFSET  -1.818440   0.000000   0.000000
                                        }
                                    }
                                }
                            }
                        }
                    }
                }
            }
        }
    }
    JOINT LeftHip
    {
        OFFSET   9.783010   0.000000   0.000000
        CHANNELS 3 Zrotation Xrotation Yrotation
        JOINT LeftKnee
        {
            OFFSET   0.000070 -41.789100   0.000028
            CHANNELS 3 Zrotation Xrotation Yrotation
            JOINT LeftAnkle
            {
                OFFSET   0.000087 -41.133200  -0.000100
                CHANNELS 3 Zrotation Xrotation Yrotation
                JOINT LeftToe
                {
                    OFFSET   0.000000  -6.358960  14.674500
                    CHANNELS 3 Zrotation Xrotation Yrotation
                    End Site
                    {
                        OFFSET   0.000000   0.000000   3.913200
                    }
                }
            }
        }
    }
    JOINT RightHip
    {
        OFFSET  -9.783020   0.000000   0.000000
        CHANNELS 3 Zrotation Xrotation Yrotation
        JOINT RightKnee
        {
            OFFSET   0.000044 -41.789100  -0.000870
            CHANNELS 3 Zrotation Xrotation Yrotation
            JOINT RightAnkle
            {
                OFFSET  -0.000090 -41.133200  -0.000245
                CHANNELS 3 Zrotation Xrotation Yrotation
                JOINT RightToe
                {
                    OFFSET   0.000000  -6.358960  14.674500
                    CHANNELS 3 Zrotation Xrotation Yrotation
                    End Site
                    {
                        OFFSET   0.000000   0.000000   3.913200
                    }
                }
            }
        }
    }
}
MOTION
Frames: 5
Frame Time:   0.016667
 -0.372172  90.065800  -0.095999  -2.148310  -2.766010  -2.711280   0.420457   3.787150  -1.437380   0.939309   7.562410  -2.912200   4.032820  -2.054570   0.147453   6.647090  -4.103990   9.088650  -5.476140  -1.869680   3.259040 -70.867900  17.113200   0.390001  -4.799710  -8.099440 -19.367200  16.594800  -0.228521  12.460400  45.561300  35.421400 -71.791700 -22.293900   0.002409   0.002906  -6.142690   0.001105   0.001560 -39.925200  11.438000 -13.317400 -33.761200   0.000327  -0.001789 -23.916500  -0.006998  -0.000489 -33.609200   0.213251  -0.320662 -50.436000  -0.009882  -0.008334 -33.576300   0.003487   0.000119 -30.389900   0.194816  -0.332185 -45.585700  -0.000773   0.002867 -30.360000  -0.000326   0.000986 -38.943800  -0.780625   0.964835 -58.425800  -0.004048  -0.003618 -38.911600   0.002747  -0.006646  10.029400   0.508662   8.434290  67.696200  14.573000   2.033350   0.414288  -3.546690  18.340000 -21.523200 -16.477300  -0.825990 -36.226200  26.603000  57.018000  32.046900   0.001915  -0.001118  11.009300   0.002273  -0.003473  39.868600   2.026330   2.424220  32.654800  -0.004120   0.002327  22.909700   0.002775   0.002057  29.409300  -3.146670  -5.564890  44.323900  -0.005203   0.009741  29.531300   0.000985   0.008852  29.311200  -4.958060  -8.757090  44.534000  -0.005710   0.002111  29.661400  -0.003417   0.005220  43.012300  -6.893080  -7.340100  65.183100  -0.005964  -0.005493  43.411900   0.005003  -0.004085   2.653740   4.947440   1.638490   0.245366   1.356120  10.943900  -6.304000  -5.166360   2.872220  -0.000000   0.000000  -0.000000   2.931880   3.912970  -7.374330  -0.524584   1.777660  -5.970810  -9.907880   0.605944   2.202370   0.000000   0.000000   0.000000
 -0.372185  90.065800  -0.095994  -2.148020  -2.767100  -2.704240   0.420442   3.786990  -1.437020   0.939237   7.562080  -2.911470   4.041640  -2.054570   0.147448   6.662120  -4.104080   9.078410  -5.476040  -1.869480   3.255390 -70.870800  17.129400   0.382140  -4.797610  -8.094850 -19.367000  16.602600  -0.228552  12.470300  45.552000  35.413100 -71.773700 -22.299400   0.002410   0.002912  -6.147320   0.001105   0.001550 -39.932500  11.438000 -13.316900 -33.767400   0.000327  -0.001791 -23.922200  -0.007003  -0.000488 -33.609200   0.208325  -0.313258 -50.436000  -0.009886  -0.008340 -33.576300   0.003485   0.000117 -30.398000   0.190358  -0.324489 -45.597800  -0.000772   0.002867 -30.368200  -0.000327   0.000989 -38.951600  -0.781133   0.965404 -58.437400  -0.004051  -0.003616 -38.919300   0.002748  -0.006649  10.029300   0.508693   8.433930  67.700300  14.574600   2.039710   0.404505  -3.534090  18.349300 -21.533200 -16.485700  -0.826025 -36.223700  26.606900  57.026700  32.046900   0.001918  -0.001103  11.009200   0.002270  -0.003475  39.880300   2.020970   2.416830  32.664100  -0.004069   0.002267  22.918200   0.002766   0.002008  29.407900  -3.153860  -5.576360  44.332600  -0.004915   0.009660  29.531300   0.000922   0.008772  29.311700  -4.958060  -8.757070  44.534000  -0.005474   0.001968  29.661900  -0.003306   0.005342  43.012300  -6.893100  -7.340080  65.183100  -0.005954  -0.005580  43.411900   0.004987  -0.004148   2.653730   4.950060   1.638570   0.245346   1.350400  10.944000  -6.303530  -5.164090   2.872460   0.000000   0.000000  -0.000000   2.932070   3.914540  -7.374370  -0.524472   1.774810  -5.970780  -9.907970   0.606769   2.202470  -0.000000   0.000000   0.000000
 -0.372198  90.065700  -0.095972  -2.147630  -2.770030  -2.694040   0.420437   3.786830  -1.435650   0.939147   7.561770  -2.908680   4.056620  -2.054560   0.147441   6.687530  -4.104050   9.059770  -5.476040  -1.869190   3.249130 -70.875700  17.157600   0.365603  -4.792260  -8.088910 -19.366700  16.614400  -0.228808  12.489500  45.546600  35.404800 -71.755800 -22.309300   0.002414   0.002920  -6.154660   0.001108   0.001540 -39.939800  11.438000 -13.316300 -33.773600   0.000327  -0.001795 -23.927800  -0.007014  -0.000487 -33.609400   0.199346  -0.299771 -50.436000  -0.009894  -0.008357 -33.576400   0.003479   0.000115 -30.406200   0.182204  -0.310486 -45.610000  -0.000770   0.002868 -30.376300  -0.000332   0.000996 -38.959400  -0.781641   0.965973 -58.449000  -0.004058  -0.003607 -38.927000   0.002749  -0.006657  10.029200   0.508745   8.433560  67.705100  14.581800   2.051020   0.392220  -3.521370  18.365100 -21.543200 -16.494000  -0.826059 -36.222400  26.615300  57.042700  32.046900   0.001921  -0.001088  11.009100   0.002267  -0.003483  39.891900   2.015610   2.409430  32.673500  -0.004018   0.002168  22.926600   0.002748   0.001928  29.406600  -3.161050  -5.587830  44.341300  -0.004627   0.009579  29.531300   0.000799   0.008691  29.312200  -4.958070  -8.757030  44.534000  -0.005239   0.001824  29.662300  -0.003196   0.005513  43.012400  -6.893130  -7.340020  65.183100  -0.005934  -0.005724  43.411900   0.004951  -0.004253   2.653700   4.953630   1.638690   0.245341   1.344210  10.944100  -6.303070  -5.161430   2.872810  -0.000000   0.000000  -0.000000   2.932120   3.916160  -7.374420  -0.524359   1.771970  -5.970740  -9.908060   0.607593   2.202570   0.000000   0.000000   0.000000
 -0.371458  90.065700  -0.095918  -2.147580  -2.774490  -2.689480   0.420573   3.786840  -1.432760   0.939252   7.561830  -2.902920   4.069310  -2.054240   0.147438   6.708740  -4.103130   9.040380  -5.476320  -1.869100   3.242330 -70.879100  17.178400   0.348069  -4.779480  -8.087850 -19.356300  16.621600  -0.235994  12.512500  45.549700  35.409000 -71.753100 -22.321200   0.002427   0.002921  -6.160070   0.001114   0.001557 -39.935600  11.437900 -13.321000 -33.770800   0.000330  -0.001798 -23.925300  -0.007028  -0.000489 -33.609500   0.188060  -0.282840 -50.432100  -0.009907  -0.008380 -33.576400   0.003470   0.000113 -30.401100   0.171875  -0.292955 -45.602300  -0.000767   0.002873 -30.371200  -0.000338   0.001003 -38.952000  -0.777877   0.961773 -58.437800  -0.004066  -0.003589 -38.919600   0.002753  -0.006672  10.029400   0.508789   8.435340  67.704500  14.598800   2.062380   0.389244  -3.523970  18.378000 -21.538100 -16.490500  -0.829368 -36.224800  26.626600  57.061200  32.041500   0.001915  -0.001108  11.009100   0.002267  -0.003500  39.890200   2.016430   2.410560  32.672100  -0.004147   0.002068  22.925400   0.002726   0.001848  29.401700  -3.159430  -5.586630  44.333800  -0.006735   0.009599  29.526300   0.000642   0.008711  29.309000  -4.958070  -8.756970  44.531000  -0.005297   0.001861  29.659200  -0.003224   0.005587  43.009600  -6.893160  -7.339920  65.178900  -0.005905  -0.005866  43.409100   0.004900  -0.004358   2.653690   4.954260   1.638800   0.245375   1.343660  10.943300  -6.303100  -5.160990   2.872970   0.000000   0.000000   0.000000   2.929900   3.916210  -7.374450  -0.523997   1.774670  -5.973870  -9.907740   0.606058   2.200490  -0.000000   0.000000  -0.000000
 -0.370083  90.065700  -0.095861  -2.147660  -2.780700  -2.686070   0.420751   3.786930  -1.429190   0.939340   7.562030  -2.895790   4.082070  -2.053600   0.147432   6.729860  -4.101530   9.021550  -5.476860  -1.869070   3.238150 -70.884600  17.209700   0.320597  -4.756940  -8.088900 -19.330100  16.629000  -0.242945  12.535500  45.549200  35.418000 -71.748600 -22.328800   0.002442   0.002923  -6.164360   0.001121   0.001580 -39.928800  11.437600 -13.327600 -33.766100   0.000333  -0.001803 -23.921000  -0.007045  -0.000491 -33.609600   0.180827  -0.271993 -50.425500  -0.009923  -0.008410 -33.576400   0.003458   0.000110 -30.392400   0.165243  -0.281731 -45.589100  -0.000764   0.002881 -30.362400  -0.000347   0.001013 -38.939200  -0.771453   0.954606 -58.418400  -0.004077  -0.003565 -38.906600   0.002758  -0.006691  10.029900   0.508826   8.440900  67.701900  14.618200   2.072850   0.387980  -3.526570  18.391500 -21.534100 -16.485200  -0.836646 -36.236200  26.639300  57.076900  32.033000   0.001909  -0.001128  11.009100   0.002268  -0.003519  39.884900   2.017600   2.412400  32.667800  -0.004427   0.002007  22.921500   0.002697   0.001800  29.392000  -3.157810  -5.585440  44.319100  -0.010335   0.009738  29.516500   0.000502   0.008851  29.302800  -4.958080  -8.756890  44.523900  -0.005708   0.002114  29.653000  -0.003418   0.005612  43.003000  -6.893190  -7.339810  65.168900  -0.005876  -0.005950  43.402500   0.004849  -0.004422   2.653670   4.954960   1.638860   0.245416   1.343590  10.941600  -6.303240  -5.160920   2.873040   0.000000   0.000000  -0.000000   2.926890   3.916250  -7.374460  -0.523353   1.780630  -5.978680  -9.907220   0.603783   2.197100  -0.000000   0.000000   0.000000
